<svg height="512" viewBox="0 0 64 64" width="512" xmlns="http://www.w3.org/2000/svg"><g id="_16-HTML" data-name="16-HTML"><path d="m43 1 12 12h-12z" fill="#ffaf36"/><path d="m55 13v50h-46v-62h34v12z" fill="#ff6d00"/><path d="m11 9v48a4 4 0 0 0 4 4h34a4 4 0 0 0 4-4v-2.123c-42-2.588-42-45.877-42-45.877z" fill="#f54e00"/><path d="m44 13h11v2h-11z" fill="#f54e00"/><path d="m1 4h36v16h-36z" fill="#f2f2f2"/><path d="m9 20h26v3h-26z" fill="#d63900"/><path d="m21 50-8-9 8-9h4l-8 9 8 9z" fill="#fff"/><path d="m43 50 8-9-8-9h-4l8 9-8 9z" fill="#fff"/><path d="m28 50 5-18h3l-5 18z" fill="#fff"/><path d="m13 41 6.222-7h-.222l-8 9 8 9h4l-1.778-2h-.222z" fill="#d63900"/><path d="m47 41-6.222-7h-3.778l8 9-8 9h4l1.778-2h-3.778z" fill="#d63900"/><path d="m32.444 34h-1.444l-5 18h3l.556-2h-1.556z" fill="#d63900"/><g fill="#cdd1d6"><path d="m29 16v-8h-1v9a1 1 0 0 0 1 1h4v-1h-3a1 1 0 0 1 -1-1z"/><path d="m8 8h1v3h-1z"/><path d="m4 8h-1v10h2v-1h-1z"/><path d="m9 13h-3v1h2v4h2v-1h-1z"/><path d="m16 9h1v1h-1z"/><path d="m14 9h-2v-1h-1v2h2v8h2v-1h-1z"/><path d="m19 8.014a.9.9 0 0 0 -.2.007 1 1 0 0 0 -.8.979v9h2v-1h-1z"/><path d="m24.908 8.01a1 1 0 0 0 -.827.6l-1.367 3.19.286.666z"/><path d="m22.081 15.394-1.081-2.522v3.328l.081.189a1 1 0 0 0 1.838 0l.175-.408c-.032 0-.062.014-.094.014a1 1 0 0 1 -.919-.601z"/><path d="m25 12.872-1 2.333v2.795h2v-1h-1z"/></g><path d="m55.707 12.293-12-12a1 1 0 0 0 -.707-.293h-34a1 1 0 0 0 -1 1v2h-7a1 1 0 0 0 -1 1v16a1 1 0 0 0 1 1h36a1 1 0 0 0 1-1v-16a1 1 0 0 0 -1-1h-27v-1h32v11a1 1 0 0 0 1 1h11v2h2v-3a1 1 0 0 0 -.293-.707zm-19.707 6.707h-34v-14h34zm8-15.586 8.586 8.586h-8.586z"/><path d="m8 23h2v2h-2z"/><path d="m8 27h2v29h-2z"/><path d="m54 62h-44v-4h-2v5a1 1 0 0 0 1 1h46a1 1 0 0 0 1-1v-41h-2z"/><path d="m54 18h2v2h-2z"/><path d="m30 17h4v-2h-3v-8h-2v9a1 1 0 0 0 1 1z"/><path d="m6 13h3v4h2v-10h-2v4h-3v-4h-2v10h2z"/><path d="m14 17h2v-8h2v-2h-6v2h2z"/><path d="m21 12.872 1.081 2.522a1 1 0 0 0 1.838 0l1.081-2.522v4.128h2v-9a1 1 0 0 0 -1.919-.394l-2.081 4.855-2.081-4.855a1 1 0 0 0 -1.919.394v9h2z"/><path d="m25.912 31.59a1 1 0 0 0 -.912-.59h-4a1 1 0 0 0 -.747.335l-8 9a1 1 0 0 0 0 1.328l8 9a1 1 0 0 0 .747.337h4a1 1 0 0 0 .747-1.664l-7.409-8.336 7.409-8.335a1 1 0 0 0 .165-1.075zm-9.659 8.746a1 1 0 0 0 0 1.328l6.52 7.336h-1.324l-7.111-8 7.111-8h1.324z"/><path d="m38.088 50.409a1 1 0 0 0 .912.591h4a1 1 0 0 0 .747-.336l8-9a1 1 0 0 0 0-1.328l-8-9a1 1 0 0 0 -.747-.336h-4a1 1 0 0 0 -.747 1.665l7.409 8.335-7.409 8.336a1 1 0 0 0 -.165 1.073zm9.659-8.745a1 1 0 0 0 0-1.328l-6.52-7.336h1.324l7.111 8-7.111 8h-1.324z"/><path d="m31 51a1 1 0 0 0 .964-.732l5-18a1 1 0 0 0 -.964-1.268h-3a1 1 0 0 0 -.964.732l-5 18a1 1 0 0 0 .964 1.268zm2.76-18h.925l-4.445 16h-.925z"/></g></svg>