<?xml version="1.0" encoding="utf-8"?>
<!-- Generator: Adobe Illustrator 28.0.0, SVG Export Plug-In . SVG Version: 6.00 Build 0)  -->
<svg version="1.1" id="Ebene_1" xmlns="http://www.w3.org/2000/svg" xmlns:xlink="http://www.w3.org/1999/xlink" x="0px" y="0px"
	 viewBox="0 0 1842.5 1275.6" style="enable-background:new 0 0 1842.5 1275.6;" xml:space="preserve">
<style type="text/css">
	.st0{fill:url(#SVGID_1_);}
	.st1{fill:url(#SVGID_00000150102510929769074030000005581325015954085563_);}
	.st2{fill:none;}
	.st3{fill:#94C8D5;}
	.st4{fill:#005077;}
	.st5{clip-path:url(#SVGID_00000097474607560727899100000013360995411495765175_);fill:#005077;}
	.st6{fill:#FFFFFF;}
	.st7{fill:#052F42;}
	.st8{font-family:'GoodPro-XCondBlack';}
	.st9{font-size:153px;}
	.st10{letter-spacing:12;}
</style>
<g>
	<g>
		<path d="M268.7,380.6v152.8h53.1V380.6H451v418.9H321.8V640.2h-53.1v159.2H139.6V380.6H268.7z"/>
		<path d="M928,799.4H790.5L749,591h-1.3l-42.8,208.5H568l-99.8-418.9h127.3L639,643.4h1.3l48.6-262.8h118.9l48.6,266.7h1.3
			l43.5-266.7h126.6L928,799.4z"/>
		<path d="M1315.5,467.5l-85.7,40.9c-11.5-29.4-29.4-38.4-50.5-38.4c-14.1,0-22.4,8.3-22.4,21.7c0,44.8,158.6,49.9,158.6,186.7
			c0,80.6-55.6,126.6-143.2,126.6c-69.7,0-134.3-41.6-150.3-106.8l94.6-30.7c10.9,31.3,34.5,43.5,52.4,43.5c16.6,0,26.2-9,26.2-23
			c0-56.3-165-65.2-165-190.6c0-67.8,53.1-122.8,134.9-122.8C1245.8,374.8,1286.8,410.6,1315.5,467.5z"/>
	</g>
</g>
<g>
	<g>
		<g>
			<path d="M406.6,959.6h-36.1v101.7H353V837.9h59.5c37.3,0,56.1,21,56.1,58.9c0,36.7-15.4,56.4-43.5,60.7l57,103.9h-20.6
				L406.6,959.6z M370.6,944.5h40.4c29.9,0,40.1-17.3,40.1-47.2c0-29.6-10.2-43.8-38.8-43.8h-41.6V944.5z"/>
			<path d="M685.5,837.9v159c0,42.5-23.4,67.5-66.6,67.5c-42.5,0-66.6-25-66.6-67.2V837.9h17.9v159.3c0,38.8,22.5,51.2,48.7,51.2
				c31.1,0,49-15.4,49-51.2V837.9H685.5z"/>
			<path d="M893.8,902.6c0,40.7-19.1,64.7-55.5,64.7h-47.2v94h-17.6V837.9h64.1C874.4,837.9,893.8,860.7,893.8,902.6z M791.2,952.2
				h46.5c26.8,0,38.5-16,38.5-49.6c0-33.9-11.7-49-38.5-49h-46.5V952.2z"/>
			<path d="M1091.1,902.6c0,40.7-19.1,64.7-55.5,64.7h-47.2v94h-17.6V837.9h64.1C1071.7,837.9,1091.1,860.7,1091.1,902.6z
				 M988.4,952.2h46.5c26.8,0,38.5-16,38.5-49.6c0-33.9-11.7-49-38.5-49h-46.5V952.2z"/>
			<path d="M1279.1,837.9v16h-93.4V938h76.4v14.8h-76.4v92.5h98.6v16h-116.2V837.9H1279.1z"/>
		</g>
		<g>
			<path d="M267.5,879.5l-13.5,5.2c-8.9-22.4-24.5-34-47.5-34c-35,0-51.8,22.4-51.8,61V993c0,36.2,17.8,55.2,50,55.2
				c21.5,0,39-5,44.5-28.4c2.9-12.5,1.1-51.4,1.1-51.4h-31.6v-13.2H265c0,0,0,48.5,0,64.7c0,1.6-1.4,43.6-63.1,43.6
				c-41.4,0-65-26.4-65-70.2v-81.6c0-45.4,22.4-76.4,68.1-76.4C235.9,835.4,259.2,853.2,267.5,879.5z"/>
		</g>
	</g>
</g>
<path d="M1604.2,326.1l-67.9-32.1l67.9-32.4l67.2,32.4L1604.2,326.1z M1508.2,294l-67.2-32.4l-67.9,32.4l67.9,32.1L1508.2,294z
	 M1522.9,219.1l-67.9,32.4l67.9,32.1l67.2-32.1L1522.9,219.1z M1604.2,488.6l-67.9,32.1l67.9,32.4l67.2-32.4L1604.2,488.6z
	 M1441,488.6l-67.9,32.1l67.9,32.4l67.2-32.4L1441,488.6z M1522.9,531.1l-67.9,32.1l67.9,32.4l67.2-32.4L1522.9,531.1z
	 M1522.6,306.3v62.6l65.6,31.3v-63L1522.6,306.3z M1376.7,374.4l65.2,33.9v-65.1L1376.7,374.4z M1376.7,439.7v-65.3l65.2,33.9v62.4
	l-65.2-31.1v-65.2V439.7z M1603.5,343.2v65.1l65.2-33.9L1603.5,343.2z M1668.7,439.7v-65.3l-65.2,33.9v62.4l65.2-31.1v-65.2V439.7z
	 M1457,337.2v63l65.6-31.3v-62.6L1457,337.2z M1588.2,477.9v-63l-65.6,31.3v62.6L1588.2,477.9z M1522.6,508.8v-62.6l-65.6-31.3v63
	L1522.6,508.8z"/>
<rect x="139.6" y="211.2" class="st2" width="720.2" height="133.5"/>
<text transform="matrix(1 0 0 1 139.5576 325.6299)" class="st8 st9 st10">POWERED BY</text>
</svg>
