<?xml version="1.0"?>
<svg xmlns="http://www.w3.org/2000/svg" xmlns:xlink="http://www.w3.org/1999/xlink" xmlns:svgjs="http://svgjs.com/svgjs" version="1.1" width="512" height="512" x="0" y="0" viewBox="0 0 64 64" style="enable-background:new 0 0 512 512" xml:space="preserve" class=""><g><path xmlns="http://www.w3.org/2000/svg" d="M32,27a9,9,0,1,1,9-9A9.01,9.01,0,0,1,32,27Zm0-16a7,7,0,1,0,7,7A7.008,7.008,0,0,0,32,11Z" fill="#ffffff" data-original="#000000" style="" class=""/><path xmlns="http://www.w3.org/2000/svg" d="M57,9.219,32,2.969,7,9.219V21.171A44.17,44.17,0,0,0,31.553,60.9l.451.221.447-.223A44.808,44.808,0,0,0,39,56.86V61H57V43H51.268A44.333,44.333,0,0,0,57,21.171ZM39,54.326a42.214,42.214,0,0,1-7,4.553,42.48,42.48,0,0,1-13-10.33V38a7.005,7.005,0,0,1,6.052-6.928,20.146,20.146,0,0,0,5.9,13.29L32,45.415l1.051-1.052a20.152,20.152,0,0,0,5.9-13.291A7,7,0,0,1,45,38v5H39ZM36.974,31A18.171,18.171,0,0,1,32,42.575,18.171,18.171,0,0,1,27.026,31ZM54.132,45l-6.287,9.43-3.138-3.137a1,1,0,0,0-1.414,1.414l4.862,4.863L55,47.3V59H41V45ZM55,21.171A42.267,42.267,0,0,1,48.946,43H47V38a9.01,9.01,0,0,0-9-9H26a9.01,9.01,0,0,0-9,9v8.009A42.266,42.266,0,0,1,9,21.171V10.781l23-5.75,23,5.75Z" fill="#ffffff" data-original="#000000" style="" class=""/></g></svg>
