<?xml version="1.0" encoding="utf-8"?>
<!-- Generator: Adobe Illustrator 25.4.1, SVG Export Plug-In . SVG Version: 6.00 Build 0)  -->
<svg version="1.1" id="Ebene_1" xmlns="http://www.w3.org/2000/svg" xmlns:xlink="http://www.w3.org/1999/xlink" x="0px" y="0px"
	 viewBox="0 0 126.5 40.9" style="enable-background:new 0 0 126.5 40.9;" xml:space="preserve">
<style type="text/css">
	.st0{fill:#FFFFFF;}
	.st1{fill:none;}
	.st2{enable-background:new    ;}
</style>
<g>
	<g>
		<g>
			<path class="st0" d="M70.4,25.5v-1h4.2v6.7h-0.9V29l0,0c-0.4,1.5-1.6,2.4-2.9,2.4c-2.7,0-4.2-2.1-4.2-6.8s1.5-6.8,4.2-6.8
				c2.5,0,3.6,1.6,3.8,3.9h-1.2c0-1.6-0.9-2.9-2.6-2.9c-1.9,0-3,1.5-3,5.8s1.1,5.8,3,5.8c1.8,0,2.7-1.6,2.7-4.6v-0.3
				C73.5,25.5,70.4,25.5,70.4,25.5z"/>
			<path class="st0" d="M77,18.1h3.9c2.2,0,3.4,1.2,3.4,3.3c0,1.6-0.6,3-2.4,3.3l0,0c1.6,0.1,2.2,1.1,2.2,3.1v1.4
				c0,0.7,0.1,1.4,0.6,1.9h-1.4C83.1,30.7,83,30,83,29.3v-1.1c-0.1-2.3-0.5-3-2.6-3h-2.2v6H77V18.1z M78.2,24.2h2
				c1.9,0,2.9-0.8,2.9-2.6c0-1.6-0.7-2.6-2.8-2.6h-2.1V24.2z"/>
			<path class="st0" d="M86.6,18.1h1.2v9.4c0,2,0.8,2.9,2.6,2.9s2.6-1,2.6-2.9v-9.4h1v9.4c0,2.8-1.3,3.9-3.7,3.9
				c-2.4,0-3.7-1.1-3.7-3.9V18.1z"/>
			<path class="st0" d="M96.4,18.1h3.5c2.5,0,3.6,1.5,3.6,3.7c0,2-1,3.7-4,3.7h-2v5.7h-1.2L96.4,18.1L96.4,18.1z M97.6,24.5h2
				c1.6,0,2.8-0.7,2.8-2.7s-1-2.7-2.8-2.7h-2V24.5z"/>
			<path class="st0" d="M105.7,18.1h3.5c2.5,0,3.6,1.5,3.6,3.7c0,2-1,3.7-4,3.7h-2v5.7h-1.2L105.7,18.1L105.7,18.1z M106.8,24.5h2
				c1.6,0,2.8-0.7,2.8-2.7s-1-2.7-2.8-2.7h-2V24.5z"/>
			<path class="st0" d="M114.9,18.1h6.5v1h-5.3v4.8h5v1h-5v5.4h5.5v1h-6.7V18.1z"/>
		</g>
		<g>
			<path class="st0" d="M5.4,18h3.1v4.9H11V18h3.1v13.1H11v-5.6H8.5v5.6H5.4V18z"/>
			<path class="st0" d="M15.6,18h3.1l1.1,9.3l0,0l1.4-9.3h2.9l1.5,9.3l0,0l1.1-9.3h3l-2.3,13.1H24l-1.3-9.3l0,0l-1.3,9.3H18L15.6,18
				z"/>
			<path class="st0" d="M33.7,27.1v0.5c0,1,0.3,1.7,1.3,1.7c1.1,0,1.4-0.8,1.4-1.6c0-2.8-5.6-1.2-5.6-6.2c0-2.1,1.1-3.9,4.3-3.9
				c3.1,0,4.2,1.6,4.2,3.6v0.3h-3c0-0.6-0.1-1.1-0.3-1.4s-0.5-0.5-0.9-0.5c-0.8,0-1.2,0.5-1.2,1.4c0,2.7,5.6,1.4,5.6,6
				c0,3-1.7,4.2-4.5,4.2c-2.2,0-4.3-0.7-4.3-3.4V27L33.7,27.1L33.7,27.1z"/>
		</g>
		<g>
			<polygon class="st0" points="62.8,28.8 58.6,26.6 54.4,28.8 58.6,31 			"/>
			<polygon class="st0" points="52.1,28.9 47.9,26.7 43.7,28.9 47.9,31.1 			"/>
			<polygon class="st0" points="57.4,31.7 53.2,29.5 49,31.7 53.2,33.9 			"/>
			<polygon class="st0" points="57.4,10 53.2,7.8 49,10 53.2,12.2 			"/>
			<polygon class="st0" points="62.8,12.9 58.6,10.7 54.4,12.9 58.6,15.1 			"/>
			<polygon class="st0" points="52.1,12.9 47.9,10.7 43.7,12.9 47.9,15.1 			"/>
		</g>
		<g>
			<polygon class="st0" points="49.1,16.1 49.1,20.3 53.3,18.1 53.3,13.9 			"/>
			<polygon class="st0" points="58.6,25.2 62.8,23 62.8,18.8 58.6,20.8 			"/>
			<polygon class="st0" points="53.2,23.8 53.2,28 57.4,25.8 57.4,21.6 			"/>
			<polygon class="st0" points="43.7,18.8 47.9,21 47.9,16.6 			"/>
		</g>
		<g>
			<polygon class="st0" points="53.2,23.8 49,21.6 49,25.8 53.2,28 			"/>
			<polygon class="st0" points="58.6,20.8 58.6,16.5 62.8,18.7 			"/>
			<polygon class="st0" points="53.3,13.9 57.5,16.1 57.5,20.3 53.3,18.1 			"/>
			<polygon class="st0" points="43.7,23.1 43.7,18.8 47.9,21 47.9,25.2 43.7,23 43.7,18.8 			"/>
		</g>
	</g>
	<rect x="5.1" y="8.9" class="st1" width="39.8" height="9.3"/>
	<g class="st2">
		<path class="st0" d="M5.4,8.9h1.3c0.4,0,0.8,0.1,1,0.4S8,9.9,8,10.3v0.6c0,0.5-0.1,0.8-0.3,1s-0.5,0.4-1,0.4H6.3v2.3H5.4V8.9z
			 M6.7,11.5c0.1,0,0.3,0,0.3-0.1c0.1-0.1,0.1-0.2,0.1-0.4v-0.7c0-0.2,0-0.3-0.1-0.4C6.9,9.8,6.8,9.7,6.7,9.7H6.3v1.7h0.4V11.5z"/>
		<path class="st0" d="M8.8,14.3c-0.2-0.2-0.3-0.6-0.3-1v-2.9c0-0.4,0.1-0.8,0.3-1C9,9,9.3,8.9,9.7,8.9s0.8,0.1,1,0.4
			c0.2,0.2,0.3,0.6,0.3,1v2.9c0,0.4-0.1,0.8-0.3,1s-0.6,0.4-1,0.4S9,14.5,8.8,14.3z M10.2,13.3v-3.1c0-0.4-0.2-0.6-0.5-0.6
			s-0.5,0.2-0.5,0.6v3.1c0,0.4,0.2,0.6,0.5,0.6C10.1,13.8,10.2,13.6,10.2,13.3z"/>
		<path class="st0" d="M11.5,8.9h0.8l0.4,4.3l0,0l0.4-4.3h1l0.4,4.3l0,0l0.4-4.3h0.8l-0.6,5.6H14l-0.4-3.8l0,0l-0.4,3.8H12L11.5,8.9
			z"/>
		<path class="st0" d="M16.1,8.9h2.4v0.8H17v1.5h1.2V12H17v1.7h1.5v0.8h-2.4V8.9z"/>
		<path class="st0" d="M19,8.9h1.3c0.5,0,0.8,0.1,1,0.3s0.3,0.5,0.3,1v0.3c0,0.6-0.2,0.9-0.6,1.1l0,0c0.2,0.1,0.4,0.2,0.5,0.4
			s0.1,0.5,0.1,0.8v1c0,0.2,0,0.3,0,0.4s0,0.2,0.1,0.3h-0.9c0-0.1-0.1-0.2-0.1-0.3s0-0.2,0-0.4v-1c0-0.3,0-0.4-0.1-0.5
			s-0.2-0.2-0.4-0.2h-0.3v2.4H19V8.9z M20.2,11.3c0.2,0,0.3,0,0.4-0.1s0.1-0.2,0.1-0.5v-0.4c0-0.2,0-0.3-0.1-0.4
			c-0.1-0.1-0.2-0.1-0.3-0.1h-0.4v1.6h0.3V11.3z"/>
		<path class="st0" d="M22.3,8.9h2.4v0.8h-1.5v1.5h1.2V12h-1.2v1.7h1.5v0.8h-2.4V8.9z"/>
		<path class="st0" d="M25.2,8.9h1.3c0.4,0,0.8,0.1,1,0.4s0.3,0.6,0.3,1v2.8c0,0.5-0.1,0.8-0.3,1c-0.2,0.2-0.5,0.4-1,0.4h-1.3V8.9z
			 M26.5,13.7c0.1,0,0.3,0,0.3-0.1c0.1-0.1,0.1-0.2,0.1-0.4v-2.9c0-0.2,0-0.3-0.1-0.4c-0.1-0.1-0.2-0.1-0.3-0.1H26v4L26.5,13.7
			L26.5,13.7z"/>
		<path class="st0" d="M29.7,8.9H31c0.5,0,0.8,0.1,1,0.3s0.3,0.5,0.3,1v0.2c0,0.3,0,0.5-0.1,0.7s-0.2,0.3-0.4,0.4l0,0
			c0.4,0.1,0.7,0.5,0.7,1.2v0.5c0,0.4-0.1,0.8-0.3,1s-0.6,0.3-1,0.3h-1.4V8.9H29.7z M30.9,11.2c0.2,0,0.3,0,0.4-0.1s0.1-0.2,0.1-0.5
			v-0.3c0-0.2,0-0.3-0.1-0.4c-0.1-0.1-0.2-0.1-0.3-0.1h-0.4v1.5L30.9,11.2L30.9,11.2z M31.1,13.7c0.2,0,0.3,0,0.3-0.1
			s0.1-0.2,0.1-0.4v-0.5c0-0.3,0-0.4-0.1-0.5S31.2,12,31,12h-0.4v1.7H31.1z"/>
		<path class="st0" d="M33.6,12.2L32.5,9h0.9l0.6,2.1l0,0L34.6,9h0.9l-1.1,3.2v2.4h-0.9L33.6,12.2L33.6,12.2z"/>
	</g>
</g>
</svg>
