<svg xmlns="http://www.w3.org/2000/svg" width="48.383" height="47.271" id="microsoft-word">
  <g>
    <path fill="#2a5699" d="M25.287 0h3.287v4.4c5.881.033 11.757-.061 17.633.033a1.893 1.893 0 0 1 2.122 2.1c.093 10.828-.022 21.662.055 32.49-.055 1.11.11 2.342-.533 3.325a5.007 5.007 0 0 1-2.776.544c-5.5-.027-11-.016-16.5-.016v4.4h-3.437C16.773 45.743 8.385 44.341 0 42.873Q-.006 23.638 0 4.408C8.428 2.935 16.861 1.5 25.287 0Z"></path>
    <path fill="#fff" d="M28.576 6.046h18.136v35.178H28.576v-4.4h14.288v-2.2H28.576V31.88h14.288v-2.2H28.576v-2.747h14.288v-2.2H28.576v-2.747h14.288v-2.2H28.576v-2.747h14.288v-2.2H28.576v-2.743h14.288v-2.2H28.576Zm-17.218 9.712c1.044-.06 2.089-.1 3.133-.159.731 3.71 1.478 7.415 2.27 11.108.621-3.815 1.309-7.618 1.973-11.427 1.1-.038 2.2-.1 3.293-.165-1.242 5.326-2.331 10.7-3.688 15.989-.918.478-2.292-.022-3.381.055-.731-3.638-1.583-7.255-2.237-10.91-.643 3.551-1.478 7.069-2.215 10.6q-1.583-.082-3.177-.193c-.912-4.837-1.984-9.641-2.836-14.489.94-.044 1.885-.083 2.825-.116.566 3.5 1.209 6.986 1.7 10.493.776-3.594 1.567-7.189 2.337-10.784Z"></path>
  </g>
</svg>
