<svg xmlns="http://www.w3.org/2000/svg" width="48.387" height="47.271" id="microsoft-excel">
  <g>
    <path fill="#207245" d="M25.306 0h3.265v4.4c5.5 0 11 .011 16.506-.017a5.06 5.06 0 0 1 2.759.528 5.046 5.046 0 0 1 .539 2.781Q48.334 22 48.365 36.3a25.1 25.1 0 0 1-.187 4.81c-.22 1.143-1.594 1.171-2.512 1.209-5.694.016-11.394-.011-17.094 0v4.947h-3.414C16.781 45.748 8.387 44.341 0 42.873V4.4C8.437 2.935 16.874 1.49 25.306 0Z"></path>
    <path fill="#fff" d="M28.571 6.046H46.71v34.628H28.571v-3.3h4.4v-3.845h-4.4v-2.2h4.4v-3.846h-4.4v-2.2h4.4v-3.847h-4.4v-2.2h4.4V15.39h-4.4v-2.194h4.4V9.344h-4.4Z"></path>
    <path fill="#207245" d="M35.167 9.344h7.7v3.85h-7.7Z"></path>
    <path fill="#fff" d="M16.281 14.494q1.863-.132 3.738-.225-2.2 4.514-4.435 9.009c1.512 3.078 3.056 6.134 4.573 9.212q-1.985-.114-3.968-.253a64.89 64.89 0 0 1-2.743-6.9c-.747 2.232-1.814 4.337-2.671 6.525-1.2-.017-2.408-.066-3.611-.116 1.412-2.765 2.776-5.552 4.232-8.3-1.237-2.831-2.594-5.607-3.87-8.421q1.814-.108 3.628-.209c.819 2.149 1.714 4.271 2.391 6.475.725-2.336 1.808-4.534 2.737-6.794Z"></path>
    <path fill="#207245" d="M35.167 15.39h7.7v3.848h-7.7Zm0 6.046h7.7v3.848h-7.7Zm0 6.046h7.7v3.848h-7.7Zm0 6.046h7.7v3.848h-7.7Z"></path>
  </g>
</svg>
