<?xml version="1.0" encoding="utf-8"?>
<!-- Svg Vector Icons : http://www.onlinewebfonts.com/icon -->
<!DOCTYPE svg PUBLIC "-//W3C//DTD SVG 1.1//EN" "http://www.w3.org/Graphics/SVG/1.1/DTD/svg11.dtd">
<svg version="1.1" xmlns="http://www.w3.org/2000/svg" xmlns:xlink="http://www.w3.org/1999/xlink" x="0px" y="0px" viewBox="0 0 1000 1000" enable-background="new 0 0 1000 1000" xml:space="preserve">
<metadata> Svg Vector Icons : http://www.onlinewebfonts.com/icon </metadata>
<g><g transform="matrix(1 0 0 -1 0 480)"><path stroke-width="1" fill="#f7f7f7" d="M990-20c0,129.6-44.8,241.5-134.4,335.6C766,409.6,657,460.5,528.6,468.1h-15.3h-1.9h-3.8h-2.9H500c-134.7,0-250.1-47.7-346.1-143C58,229.8,10,114.7,10-20c0-134.7,48-249.8,143.9-345.1c96-95.3,211.3-143,346.1-143h4.8h4.8h1.9h1.9h15.3c128.4,7.6,237.4,58.5,327,152.5S990-149.6,990-20z M898.5-176.3c-33,8.9-77.5,16.5-133.5,22.9c6.4,43.2,9.5,87.7,9.5,133.5c0,35.6-1.9,71.2-5.7,106.8c63.6,7.6,109.3,15.9,137.3,24.8L894.7,144C917.5,91.9,929,37.2,929-20C929-74.7,918.8-126.8,898.5-176.3z M284.6-20c0,33,1.9,66.1,5.7,99.1c55.9-3.8,115.7-6.4,179.2-7.6v-211.6c-62.3,0-120.8-1.9-175.4-5.7C287.7-105.2,284.6-63.2,284.6-20z M528.6,403.3c38.1-11.4,72.1-41,102-88.7c29.9-47.7,51.8-105.8,65.8-174.5c-50.8-3.8-106.8-6.4-167.8-7.6V403.3z M469.5,401.4V132.5c-59.7,1.3-116.3,3.8-169.7,7.6c15.3,68.6,38.1,126.5,68.6,173.5C398.9,360.7,432.6,389.9,469.5,401.4z M469.5-201.1v-240.2c-34.3,10.2-66.1,36.2-95.3,78.2s-51.5,94.1-66.7,156.3C357-203,411-201.1,469.5-201.1z M528.6-443.3v242.1c58.5,0,112.5-1.9,162.1-5.7c-15.3-62.3-37.2-114.7-65.8-157.3C596.3-406.7,564.2-433.1,528.6-443.3z M528.6-140.1V71.5c64.8,1.3,124.6,3.8,179.2,7.6c3.8-33,5.7-66.1,5.7-99.1c0-43.2-3.2-85.8-9.5-127.7C650.6-142.7,592.2-140.1,528.6-140.1z M883.2,168.8c-28-8.9-69.3-16.5-123.9-22.9c-17.8,92.8-47.7,168.4-89.6,226.9C766.3,330.8,837.5,262.8,883.2,168.8z M353.2,382.3c-52.1-61-89.6-139.8-112.5-236.4c-52.1,5.1-94.1,11.4-125.8,19.1C165.7,270.4,245.1,342.9,353.2,382.3z M92,107.7c33-8.9,79.4-16.5,139.2-22.9c-5.1-34.3-7.6-69.3-7.6-104.9c0-44.5,3.8-88.3,11.4-131.6c-54.7-6.4-99.1-14-133.5-22.9C81.2-124.9,71-73.4,71-20C71,24.5,78,67.1,92,107.7z M128.2-229.7c33,6.4,73.1,12.1,120.1,17.2c22.9-85.2,57.8-155.1,104.9-209.7C255.3-385.4,180.3-321.2,128.2-229.7z M669.7-412.8c38.1,52.1,66.1,118.8,83.9,200.2c47-5.1,86.4-12.1,118.2-21C823.5-314.9,756.1-374.6,669.7-412.8z"/></g></g>
</svg>