<?xml version="1.0" encoding="utf-8"?>
<!-- Svg Vector Icons : http://www.onlinewebfonts.com/icon -->
<!DOCTYPE svg PUBLIC "-//W3C//DTD SVG 1.1//EN" "http://www.w3.org/Graphics/SVG/1.1/DTD/svg11.dtd">
<svg version="1.1" xmlns="http://www.w3.org/2000/svg" xmlns:xlink="http://www.w3.org/1999/xlink" x="0px" y="0px" viewBox="0 0 1000 1000" enable-background="new 0 0 1000 1000" xml:space="preserve">
<metadata> Svg Vector Icons : http://www.onlinewebfonts.com/icon </metadata>
<g><g><g><rect style="fill:rgb(255,255,255)" x="140.5" y="748.9" width="20.7" height="80"/><rect style="fill:rgb(255,255,255)" x="192.3" y="748.9" width="20.7" height="80"/>
<circle style="fill:rgb(255,255,255)" cx="733.5" cy="795.2" r="26.7"/>
<path stroke="white" stroke-width="10" fill="white"  d="M894.3,244.3l-0.7-0.2l-0.4-0.6c-19.6-35.1-55-56-94.5-56c-5.8,0-11.8,0.5-17.6,1.4l-1.2,0.2l-0.5-1.1c-18.5-38.7-56.6-62.8-99.6-62.8c-60.9,0-110.5,49.6-110.5,110.5c0,2.5,0.2,5.1,0.4,7.8l0.1,1.4l-1.3,0.3c-34.7,7.9-62.9,31.5-78.4,61.9H110.7L10,716.1v158.7h816.5V715.3l-46.4-238.6h92.6c64.7,0,117.3-52.6,117.3-117.3C990,303,949.7,254.6,894.3,244.3z M805.7,854.1h-775V727.7h775L805.7,854.1L805.7,854.1z M803.7,706.9H33.6l93.3-379.1h355c-2.9,10.2-4.9,20.7-4.9,31.6c0,64.7,52.6,117.3,117.3,117.3h164.6L803.7,706.9z M872.7,460.3H594.3c-55.6,0-100.8-45.2-100.8-100.8c0-49.8,37.1-92.6,86.4-99.7c2.2-0.3,4.2-1.5,5.5-3.3c1.3-1.8,1.8-4,1.5-6.2c-0.9-5.4-1.3-10.1-1.3-14.6c0-51.9,42.2-94.1,94.1-94.1c38.9,0,73.3,23.5,87.6,59.8c1.5,3.7,5.5,5.9,9.5,5c7.3-1.7,14.6-2.5,21.8-2.5c34.8,0,66.3,19.7,82.3,51.4c1.2,2.4,3.5,4.1,6.2,4.5c49.3,7,86.6,49.9,86.6,99.7C973.6,415,928.3,460.3,872.7,460.3z"/></g></g><g></g><g></g><g></g><g></g><g></g><g></g><g></g><g></g><g></g><g></g><g></g><g></g><g></g><g></g><g></g></g>
</svg>