<?xml version="1.0" encoding="utf-8"?>
<!-- Svg Vector Icons : http://www.onlinewebfonts.com/icon -->
<!DOCTYPE svg PUBLIC "-//W3C//DTD SVG 1.1//EN" "http://www.w3.org/Graphics/SVG/1.1/DTD/svg11.dtd">
<svg version="1.1" xmlns="http://www.w3.org/2000/svg" xmlns:xlink="http://www.w3.org/1999/xlink" x="0px" y="0px" viewBox="0 0 1000 1000" enable-background="new 0 0 1000 1000" xml:space="preserve">
<metadata> Svg Vector Icons : http://www.onlinewebfonts.com/icon </metadata>
<g><g transform="translate(0.000000,511.000000) scale(0.100000,-0.100000)">
<path stroke-width="1" fill="#f7f7f7" d="M844.7,4980.1C557,4908.8,326.9,4717.8,191.1,4437l-82.8-172.6l-6.9-4084.7c-4.6-2733.9,2.3-4121.5,18.4-4195.1c62.1-294.6,264.6-543.1,550-681.2l174.9-82.8l2078-6.9l2075.7-6.9v727.2v724.9H3030.8H1063.3V110.8v3451.8h2957.1h2957.1v-736.4v-736.4h483.3h483.3v973.4c0,1021.7-13.8,1192-101.3,1385.3c-115.1,253.1-402.7,480.9-676.5,538.5C6982,5026.2,1001.2,5019.2,844.7,4980.1z"/>
<path fill="#f7f7f7" d="M6689.8,1045c-336-108.2-582.2-365.9-667.4-695c-32.2-124.3-34.5-400.4-29.9-2266.7l6.9-2126.3l82.9-174.9c138.1-285.4,386.6-487.9,681.2-550c73.6-16.1,517.8-23,1251.9-18.4l1136.8,6.9l172.6,82.8c280.8,133.5,464.9,354.4,543.1,653.6c25.3,92.1,32.2,531.6,32.2,2186.2c0,2287.4,4.6,2223-145,2471.5c-96.7,158.8-243.9,290-430.3,379.7l-149.6,71.3l-1196.6,4.6C7055.7,1075,6761.1,1068.1,6689.8,1045z M8933.5-1615.2v-1725.9h-989.5h-989.5v1725.9V110.8h989.5h989.5V-1615.2z"/></g></g>
</svg>